<svg width="45" height="48" viewBox="0 0 45 48" fill="none" xmlns="http://www.w3.org/2000/svg">
<path d="M22.5 47.8604C18.1518 47.8604 14.2823 46.8741 10.8915 44.9017C7.50058 42.9292 4.83733 40.152 2.9017 36.57C0.967233 32.9856 0 28.7727 0 23.9311C0 19.0895 0.967233 14.8759 2.9017 11.2904C4.83733 7.7072 7.50058 4.92997 10.8915 2.95869C14.2823 0.987407 18.1518 0.00117829 22.5 0C26.8458 0 30.7153 0.986229 34.1085 2.95869C37.5018 4.93114 40.1644 7.70837 42.0965 11.2904C44.0322 14.8747 45 19.0883 45 23.9311C45 28.7738 44.0322 32.9868 42.0965 36.57C40.1632 40.1532 37.5006 42.9304 34.1085 44.9017C30.7165 46.873 26.847 47.8592 22.5 47.8604ZM22.5 40.925C25.8032 40.925 28.5641 40.1797 30.7826 38.6892C33.0051 37.192 34.745 35.0725 35.7882 32.5915C36.9068 30.0169 37.4661 27.1301 37.4661 23.9311C37.4661 20.732 36.9068 17.8452 35.7882 15.2706C34.745 12.7896 33.0051 10.6702 30.7826 9.17299C28.5617 7.68363 25.8009 6.93836 22.5 6.93718C19.1991 6.936 16.4383 7.68068 14.2174 9.17122C11.994 10.6674 10.2539 12.7872 9.2118 15.2689C8.0967 17.8434 7.53916 20.7308 7.53916 23.9311C7.53916 27.1313 8.09904 30.0181 9.21881 32.5915C10.2609 35.0732 12.001 37.193 14.2245 38.6892C16.4359 40.1797 19.1945 40.925 22.5 40.925ZM27.3314 35.469C26.1336 34.3003 26.093 32.3875 27.24 31.169C28.4166 29.9192 30.3894 29.8774 31.6178 31.0762L42.2414 41.4432C43.4452 42.6179 43.4788 44.5428 42.3167 45.7588C41.1375 46.9928 39.1778 47.0271 37.956 45.8351L27.3314 35.469Z" fill="url(#paint0_linear)"/>
<defs>
<linearGradient id="paint0_linear" x1="0" y1="23.9965" x2="45" y2="23.9965" gradientUnits="userSpaceOnUse">
<stop stop-color="#59E683"/>
<stop offset="0.17" stop-color="#3CDE81"/>
<stop offset="0.37" stop-color="#22D77F"/>
<stop offset="0.57" stop-color="#0FD27D"/>
<stop offset="0.78" stop-color="#04CF7C"/>
<stop offset="1" stop-color="#00CE7C"/>
</linearGradient>
</defs>
</svg>
